<svg width="16" height="16" viewBox="0 0 16 16" fill="none" xmlns="http://www.w3.org/2000/svg">
  <path d="M13.5 8.5C13.5 12.09 10.59 15 7 15C6.27 15 5.57 14.88 4.91 14.66C6.14 14.29 7.15 13.47 7.79 12.4C8.43 11.33 8.66 10.06 8.43 8.85C8.2 7.64 7.53 6.56 6.55 5.82C5.57 5.08 4.35 4.73 3.12 4.85C4.04 3.45 5.66 2.5 7.5 2.5C11.09 2.5 14 5.41 14 9C14 9.17 13.99 9.34 13.97 9.5C13.82 9.17 13.5 9 13.5 8.5Z" stroke="#6b7280" stroke-width="1" fill="none" stroke-linecap="round" stroke-linejoin="round"/>
</svg>
